# xmcd
#
# Track frame offsets: 
#        150
#        10285
#        26018
#        33575
#        45800
#        63605
#        85820
#        113243
#        135993
#        158038
#        174335
#        190415
#        201798
#        219505
#        237688
#        248495
#
# Disc length: 3482 seconds
#
# Revision: 3
# Processed by: cddbd v1.5.2PL0 Copyright (c) Steve Scherf et al.
# Submitted via: ExactAudioCopyFreeDBPlugin 1.0
#
DISCID=d20d9810
DTITLE=Nina Simone - Nina Simone
DYEAR=1967
DGENRE=Blues
TTITLE0=Aint Got No - 1968
TTITLE1=I Loves You Porgy - 1968
TTITLE2=Take My Hand Precious Lord - 1968
TTITLE3=To Love Somebody - 1969
TTITLE4=I Shall Be Released - 1969
TTITLE5=Just Like Tom Thumb's Blues - 1969
TTITLE6=The Times They Are A-Changing - 1969
TTITLE7=Mr Bojangles - 1971
TTITLE8=Just Like A Woman - 1971
TTITLE9=Here Comes The Sun - 1971
TTITLE10=Angel Of The Morning - 1971
TTITLE11=Backlash Blues - 1967
TTITLE12=The House Of Rising Sun - 1967
TTITLE13=Blues For Mama - 1967
TTITLE14=The Look Of Love - 1967
TTITLE15=Go To Hell - 1967
EXTD=
EXTT0=
EXTT1=
EXTT2=
EXTT3=
EXTT4=
EXTT5=
EXTT6=
EXTT7=
EXTT8=
EXTT9=
EXTT10=
EXTT11=
EXTT12=
EXTT13=
EXTT14=
EXTT15=
PLAYORDER=
